<svg width="38" height="38" viewBox="0 0 38 38" fill="none" xmlns="http://www.w3.org/2000/svg">
<path d="M19 6.33329L16.1022 11.163C15.1998 12.667 14.7486 13.419 14.7486 14.25C14.7486 15.0809 15.1998 15.8329 16.1022 17.3369L18.5713 21.452C18.7627 21.7712 18.8585 21.9307 19 21.9307C19.1415 21.9307 19.2373 21.7712 19.4287 21.452L21.8978 17.3369C22.8002 15.8329 23.2514 15.0809 23.2514 14.25C23.2514 13.419 22.8002 12.667 21.8978 11.163L19 6.33329ZM19 6.33329V3.16663" stroke="#0D0D0D" stroke-width="2"/>
<path d="M31.9204 19.947L26.2889 19.8522C24.5352 19.8227 23.6583 19.808 22.9387 20.2234C22.2191 20.6389 21.7934 21.4057 20.9421 22.9392L18.6128 27.135C18.4322 27.4604 18.3419 27.6231 18.4127 27.7457C18.4834 27.8682 18.6695 27.8714 19.0416 27.8776L23.8399 27.9584C25.5936 27.9879 26.4705 28.0026 27.1901 27.5871C27.9097 27.1717 28.3354 26.4049 29.1867 24.8714L31.9204 19.947ZM31.9204 19.947L34.6628 18.3636" stroke="#0D0D0D" stroke-width="2"/>
<path d="M6.07957 19.947L11.7111 19.8522C13.4648 19.8227 14.3417 19.808 15.0613 20.2234C15.7809 20.6389 16.2066 21.4057 17.0579 22.9392L19.3872 27.135C19.5678 27.4604 19.6581 27.6231 19.5873 27.7457C19.5166 27.8682 19.3305 27.8714 18.9584 27.8776L14.1601 27.9584C12.4064 27.9879 11.5295 28.0026 10.8099 27.5871C10.0903 27.1717 9.66461 26.4049 8.8133 24.8714L6.07957 19.947ZM6.07957 19.947L3.33716 18.3636" stroke="#0D0D0D" stroke-width="2"/>
<path d="M19 23.75V35.625" stroke="#0D0D0D" stroke-width="2"/>
</svg>
