<svg width="20" height="20" viewBox="0 0 20 20" fill="none" xmlns="http://www.w3.org/2000/svg">
<path d="M2.5 10.8333V10C2.5 6.71252 2.5 5.06878 3.40796 3.96243C3.57418 3.75989 3.75989 3.57418 3.96243 3.40796C5.06878 2.5 6.71252 2.5 10 2.5V2.5C13.2875 2.5 14.9312 2.5 16.0376 3.40796C16.2401 3.57418 16.4258 3.75989 16.592 3.96243C17.5 5.06878 17.5 6.71252 17.5 10V10C17.5 13.2875 17.5 14.9312 16.592 16.0376C16.4258 16.2401 16.2401 16.4258 16.0376 16.592C14.9312 17.5 13.2875 17.5 10 17.5V17.5" stroke="#F1F1F1" stroke-width="2"/>
<path fill-rule="evenodd" clip-rule="evenodd" d="M15.4994 10.7795C14.2105 9.76525 12.2924 10.1124 11.4504 11.5443L7.42593 6.8491C7.06651 6.42978 6.43521 6.38122 6.01588 6.74064C5.59656 7.10006 5.548 7.73136 5.90742 8.15069L10.0542 12.9885C10.9248 14.0043 12.5492 13.8043 13.1475 12.6077C13.3737 12.1553 13.9767 12.0574 14.3344 12.4151L15.4125 13.4932C15.4826 12.8262 15.4966 11.9751 15.4994 10.7795Z" fill="#F1F1F1"/>
<circle cx="13.75" cy="6.25" r="1.25" fill="#F1F1F1"/>
<path d="M6.66666 13.3333V12.3333H7.66666V13.3333H6.66666ZM3.12468 17.4475C2.69342 17.7926 2.06413 17.7226 1.71912 17.2914C1.37411 16.8601 1.44403 16.2308 1.87529 15.8858L3.12468 17.4475ZM5.66666 17.5V13.3333H7.66666V17.5H5.66666ZM6.66666 14.3333H2.49999V12.3333H6.66666V14.3333ZM7.29135 14.1142L3.12468 17.4475L1.87529 15.8858L6.04196 12.5525L7.29135 14.1142Z" fill="#F1F1F1"/>
</svg>
